<svg xmlns="http://www.w3.org/2000/svg" width="1500" height="980" viewBox="0 0 1500 980">
<defs>
<marker id="arrow" markerWidth="9" markerHeight="9" refX="8" refY="4.5" orient="auto" markerUnits="strokeWidth">
<path d="M0,0 L9,4.5 L0,9 z" fill="#111111"/>
</marker>
<marker id="arrow-purple" markerWidth="9" markerHeight="9" refX="8" refY="4.5" orient="auto" markerUnits="strokeWidth">
<path d="M0,0 L12,6 L0,12 z" fill="#6941C6"/>
</marker>
<marker id="arrow-red" markerWidth="9" markerHeight="9" refX="8" refY="4.5" orient="auto" markerUnits="strokeWidth">
<path d="M0,0 L9,4.5 L0,9 z" fill="#ff1f1f"/>
</marker>
<marker id="axis-arrow" markerWidth="12" markerHeight="12" refX="6" refY="10" orient="auto">
<path d="M1,1 L11,1 L6,11 z" fill="#111111"/>
</marker>
</defs>
<rect x="0" y="0" width="100%" height="100%" fill="white"/>
<style>text{font-family:Arial,"Noto Sans CJK SC","Microsoft YaHei",sans-serif;}</style>
<text x="390" y="55" font-size="32" text-anchor="middle" fill="#111111">TP Sender</text>
<text x="1120" y="55" font-size="32" text-anchor="middle" fill="#111111">TP Receiver</text>
<line x1="390" y1="85" x2="390" y2="860" stroke="#111111" stroke-width="1.4" marker-end="url(#axis-arrow)"/>
<line x1="1120" y1="85" x2="1120" y2="860" stroke="#111111" stroke-width="1.4" marker-end="url(#axis-arrow)"/>
<line x1="390" y1="145" x2="1120" y2="247" stroke="#111111" stroke-width="1.5" marker-end="url(#arrow)"/>
<line x1="390" y1="165" x2="798" y2="222" stroke="#ff1f1f" stroke-width="1.7" marker-end="url(#arrow-red)"/>
<line x1="390" y1="195" x2="1120" y2="289" stroke="#111111" stroke-width="1.5" marker-end="url(#arrow)"/>
<line x1="390" y1="215" x2="1120" y2="435" stroke="#111111" stroke-width="1.5" marker-end="url(#arrow)"/>
<line x1="1120" y1="257" x2="390" y2="403" stroke="#6941C6" stroke-width="1.4" stroke-dasharray="8 5" stroke-opacity="0.68" marker-end="url(#arrow-purple)"/>
<line x1="1120" y1="299" x2="390" y2="331" stroke="#111111" stroke-width="1.5" marker-end="url(#arrow)"/>
<line x1="390" y1="341" x2="798" y2="464" stroke="#ff1f1f" stroke-width="1.7" marker-end="url(#arrow-red)"/>
<line x1="390" y1="371" x2="1120" y2="509" stroke="#111111" stroke-width="1.5" marker-end="url(#arrow)"/>
<line x1="1120" y1="445" x2="390" y2="477" stroke="#111111" stroke-width="1.5" marker-end="url(#arrow)"/>
<line x1="1120" y1="519" x2="390" y2="551" stroke="#111111" stroke-width="1.5" marker-end="url(#arrow)"/>
<line x1="390" y1="561" x2="1120" y2="593" stroke="#111111" stroke-width="1.5" marker-end="url(#arrow)"/>
<line x1="1120" y1="603" x2="390" y2="635" stroke="#111111" stroke-width="1.5" marker-end="url(#arrow)"/>
<line x1="382" y1="145" x2="398" y2="145" stroke="#667085" stroke-width="1"/>
<text x="372" y="150" text-anchor="end" font-size="14" fill="#667085" font-family="Arial, Noto Sans CJK SC, Microsoft YaHei, sans-serif">11ns</text>
<line x1="1112" y1="247" x2="1128" y2="247" stroke="#667085" stroke-width="1"/>
<text x="1138" y="252" text-anchor="start" font-size="14" fill="#667085" font-family="Arial, Noto Sans CJK SC, Microsoft YaHei, sans-serif">251ns</text>
<line x1="382" y1="165" x2="398" y2="165" stroke="#667085" stroke-width="1"/>
<text x="372" y="170" text-anchor="end" font-size="14" fill="#667085" font-family="Arial, Noto Sans CJK SC, Microsoft YaHei, sans-serif">17ns</text>
<line x1="382" y1="195" x2="398" y2="195" stroke="#667085" stroke-width="1"/>
<text x="372" y="200" text-anchor="end" font-size="14" fill="#667085" font-family="Arial, Noto Sans CJK SC, Microsoft YaHei, sans-serif">22ns</text>
<line x1="1112" y1="289" x2="1128" y2="289" stroke="#667085" stroke-width="1"/>
<text x="1138" y="294" text-anchor="start" font-size="14" fill="#667085" font-family="Arial, Noto Sans CJK SC, Microsoft YaHei, sans-serif">419ns</text>
<line x1="382" y1="215" x2="398" y2="215" stroke="#667085" stroke-width="1"/>
<text x="372" y="220" text-anchor="end" font-size="14" fill="#667085" font-family="Arial, Noto Sans CJK SC, Microsoft YaHei, sans-serif">27ns</text>
<line x1="1112" y1="435" x2="1128" y2="435" stroke="#667085" stroke-width="1"/>
<text x="1138" y="440" text-anchor="start" font-size="14" fill="#667085" font-family="Arial, Noto Sans CJK SC, Microsoft YaHei, sans-serif">586ns</text>
<line x1="1112" y1="257" x2="1128" y2="257" stroke="#667085" stroke-width="1"/>
<text x="1138" y="262" text-anchor="start" font-size="14" fill="#667085" font-family="Arial, Noto Sans CJK SC, Microsoft YaHei, sans-serif">252ns</text>
<line x1="382" y1="403" x2="398" y2="403" stroke="#667085" stroke-width="1"/>
<text x="372" y="408" text-anchor="end" font-size="14" fill="#667085" font-family="Arial, Noto Sans CJK SC, Microsoft YaHei, sans-serif">552ns</text>
<line x1="1112" y1="299" x2="1128" y2="299" stroke="#667085" stroke-width="1"/>
<text x="1138" y="304" text-anchor="start" font-size="14" fill="#667085" font-family="Arial, Noto Sans CJK SC, Microsoft YaHei, sans-serif">420ns</text>
<line x1="382" y1="331" x2="398" y2="331" stroke="#667085" stroke-width="1"/>
<text x="372" y="336" text-anchor="end" font-size="14" fill="#667085" font-family="Arial, Noto Sans CJK SC, Microsoft YaHei, sans-serif">485ns</text>
<line x1="382" y1="341" x2="398" y2="341" stroke="#667085" stroke-width="1"/>
<text x="372" y="346" text-anchor="end" font-size="14" fill="#667085" font-family="Arial, Noto Sans CJK SC, Microsoft YaHei, sans-serif">486ns</text>
<line x1="382" y1="371" x2="398" y2="371" stroke="#667085" stroke-width="1"/>
<text x="372" y="376" text-anchor="end" font-size="14" fill="#667085" font-family="Arial, Noto Sans CJK SC, Microsoft YaHei, sans-serif">491ns</text>
<line x1="1112" y1="509" x2="1128" y2="509" stroke="#667085" stroke-width="1"/>
<text x="1138" y="514" text-anchor="start" font-size="14" fill="#667085" font-family="Arial, Noto Sans CJK SC, Microsoft YaHei, sans-serif">753ns</text>
<line x1="1112" y1="445" x2="1128" y2="445" stroke="#667085" stroke-width="1"/>
<text x="1138" y="450" text-anchor="start" font-size="14" fill="#667085" font-family="Arial, Noto Sans CJK SC, Microsoft YaHei, sans-serif">587ns</text>
<line x1="382" y1="477" x2="398" y2="477" stroke="#667085" stroke-width="1"/>
<text x="372" y="482" text-anchor="end" font-size="14" fill="#667085" font-family="Arial, Noto Sans CJK SC, Microsoft YaHei, sans-serif">652ns</text>
<line x1="1112" y1="519" x2="1128" y2="519" stroke="#667085" stroke-width="1"/>
<text x="1138" y="524" text-anchor="start" font-size="14" fill="#667085" font-family="Arial, Noto Sans CJK SC, Microsoft YaHei, sans-serif">754ns</text>
<line x1="382" y1="551" x2="398" y2="551" stroke="#667085" stroke-width="1"/>
<text x="372" y="556" text-anchor="end" font-size="14" fill="#667085" font-family="Arial, Noto Sans CJK SC, Microsoft YaHei, sans-serif">820ns</text>
<line x1="382" y1="561" x2="398" y2="561" stroke="#667085" stroke-width="1"/>
<text x="372" y="566" text-anchor="end" font-size="14" fill="#667085" font-family="Arial, Noto Sans CJK SC, Microsoft YaHei, sans-serif">821ns</text>
<line x1="1112" y1="593" x2="1128" y2="593" stroke="#667085" stroke-width="1"/>
<text x="1138" y="598" text-anchor="start" font-size="14" fill="#667085" font-family="Arial, Noto Sans CJK SC, Microsoft YaHei, sans-serif">1061ns</text>
<line x1="1112" y1="603" x2="1128" y2="603" stroke="#667085" stroke-width="1"/>
<text x="1138" y="608" text-anchor="start" font-size="14" fill="#667085" font-family="Arial, Noto Sans CJK SC, Microsoft YaHei, sans-serif">1062ns</text>
<line x1="382" y1="635" x2="398" y2="635" stroke="#667085" stroke-width="1"/>
<text x="372" y="640" text-anchor="end" font-size="14" fill="#667085" font-family="Arial, Noto Sans CJK SC, Microsoft YaHei, sans-serif">1126ns</text>
<g transform="translate(638.2,179.7) rotate(7.95)">
<text x="0" y="-7" text-anchor="middle" font-size="18" font-family="Arial, Noto Sans CJK SC, Microsoft YaHei, sans-serif" font-style="italic" fill="#111111" stroke="white" stroke-width="5" paint-order="stroke fill">psn=0</text>
</g>
<text x="812" y="230" font-size="34" font-weight="700" fill="#ff1f1f">X</text>
<text x="840" y="228" font-size="14" fill="#ff1f1f">drop</text>
<g transform="translate(561.4,188.9) rotate(7.95)">
<text x="0" y="-7" text-anchor="middle" font-size="18" font-family="Arial, Noto Sans CJK SC, Microsoft YaHei, sans-serif" font-style="italic" fill="#ff1f1f" stroke="white" stroke-width="5" paint-order="stroke fill">psn=1</text>
</g>
<g transform="translate(638.2,227.0) rotate(7.34)">
<text x="0" y="-7" text-anchor="middle" font-size="18" font-family="Arial, Noto Sans CJK SC, Microsoft YaHei, sans-serif" font-style="italic" fill="#111111" stroke="white" stroke-width="5" paint-order="stroke fill">psn=2</text>
</g>
<g transform="translate(696.6,307.4) rotate(16.77)">
<text x="0" y="-7" text-anchor="middle" font-size="18" font-family="Arial, Noto Sans CJK SC, Microsoft YaHei, sans-serif" font-style="italic" fill="#111111" stroke="white" stroke-width="5" paint-order="stroke fill">psn=3</text>
</g>
<g transform="translate(871.8,306.6) rotate(-11.31)">
<text x="0" y="-7" text-anchor="middle" font-size="17" font-family="Arial, Noto Sans CJK SC, Microsoft YaHei, sans-serif" font-style="italic" fill="#6941C6" stroke="white" stroke-width="5" paint-order="stroke fill">ACK(PSN=0) delay 300ns</text>
</g>
<g transform="translate(711.2,316.9) rotate(-2.51)">
<text x="0" y="-7" text-anchor="middle" font-size="15" font-family="Arial, Noto Sans CJK SC, Microsoft YaHei, sans-serif" font-style="italic" fill="#111111" stroke="white" stroke-width="5" paint-order="stroke fill">SACK(PSN=0,MAX=2,BM=101)</text>
</g>
<text x="812" y="472" font-size="34" font-weight="700" fill="#ff1f1f">X</text>
<text x="840" y="470" font-size="14" fill="#ff1f1f">drop</text>
<g transform="translate(561.4,392.7) rotate(16.78)">
<text x="0" y="-7" text-anchor="middle" font-size="18" font-family="Arial, Noto Sans CJK SC, Microsoft YaHei, sans-serif" font-style="italic" fill="#ff1f1f" stroke="white" stroke-width="5" paint-order="stroke fill">psn=1</text>
</g>
<g transform="translate(696.6,429.0) rotate(10.70)">
<text x="0" y="-7" text-anchor="middle" font-size="18" font-family="Arial, Noto Sans CJK SC, Microsoft YaHei, sans-serif" font-style="italic" fill="#111111" stroke="white" stroke-width="5" paint-order="stroke fill">psn=4</text>
</g>
<g transform="translate(755.0,461.0) rotate(-2.51)">
<text x="0" y="-7" text-anchor="middle" font-size="15" font-family="Arial, Noto Sans CJK SC, Microsoft YaHei, sans-serif" font-style="italic" fill="#111111" stroke="white" stroke-width="5" paint-order="stroke fill">SACK(PSN=0,MAX=3,BM=1011)</text>
</g>
<g transform="translate(711.2,536.9) rotate(-2.51)">
<text x="0" y="-7" text-anchor="middle" font-size="15" font-family="Arial, Noto Sans CJK SC, Microsoft YaHei, sans-serif" font-style="italic" fill="#111111" stroke="white" stroke-width="5" paint-order="stroke fill">SACK(PSN=0,MAX=4,BM=10111)</text>
</g>
<g transform="translate(638.2,571.9) rotate(2.51)">
<text x="0" y="-7" text-anchor="middle" font-size="18" font-family="Arial, Noto Sans CJK SC, Microsoft YaHei, sans-serif" font-style="italic" fill="#111111" stroke="white" stroke-width="5" paint-order="stroke fill">psn=1</text>
</g>
<g transform="translate(784.2,617.7) rotate(-2.51)">
<text x="0" y="-7" text-anchor="middle" font-size="17" font-family="Arial, Noto Sans CJK SC, Microsoft YaHei, sans-serif" font-style="italic" fill="#111111" stroke="white" stroke-width="5" paint-order="stroke fill">ACK(PSN=4)</text>
</g>
<text x="750" y="935" font-size="32" text-anchor="middle" fill="#111111" font-weight="700">图 6-28  SELE_fast/non_first_tp_packet_loss_markpsn</text>
</svg>
