<svg xmlns="http://www.w3.org/2000/svg" width="1500" height="1100" viewBox="0 0 1500 1100">
<defs>
<marker id="arrow" markerWidth="9" markerHeight="9" refX="8" refY="4.5" orient="auto" markerUnits="strokeWidth">
<path d="M0,0 L9,4.5 L0,9 z" fill="#111111"/>
</marker>
<marker id="arrow-purple" markerWidth="9" markerHeight="9" refX="8" refY="4.5" orient="auto" markerUnits="strokeWidth">
<path d="M0,0 L12,6 L0,12 z" fill="#6941C6"/>
</marker>
<marker id="arrow-red" markerWidth="9" markerHeight="9" refX="8" refY="4.5" orient="auto" markerUnits="strokeWidth">
<path d="M0,0 L9,4.5 L0,9 z" fill="#ff1f1f"/>
</marker>
<marker id="axis-arrow" markerWidth="12" markerHeight="12" refX="6" refY="10" orient="auto">
<path d="M1,1 L11,1 L6,11 z" fill="#111111"/>
</marker>
</defs>
<rect x="0" y="0" width="100%" height="100%" fill="white"/>
<style>text{font-family:Arial,"Noto Sans CJK SC","Microsoft YaHei",sans-serif;}</style>
<text x="390" y="55" font-size="32" text-anchor="middle" fill="#111111">TP Sender</text>
<text x="1120" y="55" font-size="32" text-anchor="middle" fill="#111111">TP Receiver</text>
<line x1="390" y1="85" x2="390" y2="980" stroke="#111111" stroke-width="1.4" marker-end="url(#axis-arrow)"/>
<line x1="1120" y1="85" x2="1120" y2="980" stroke="#111111" stroke-width="1.4" marker-end="url(#axis-arrow)"/>
<path d="M 352 551 C 332 551 332 569 332 587 L 332 616.0 C 332 628.0 320 636.0 307 636.0 C 320 636.0 332 644.0 332 656.0 L 332 685 C 332 703 332 721 352 721" fill="none" stroke="#4f7fc9" stroke-width="2"/>
<text x="240" y="644.0" font-size="30" fill="#4f7fc9">RTO</text>
<text x="226" y="674.0" font-size="14" fill="#4f7fc9">25600ns</text>
<text x="42" y="543" font-size="14" fill="#4f7fc9">start: TPACK PSN=3 arrived @ 819ns</text>
<text x="42" y="743" font-size="14" fill="#4f7fc9">timeout @ 26419ns; retrans DATA PSN=4 @ 26420ns</text>
<line x1="390" y1="145" x2="1120" y2="277" stroke="#111111" stroke-width="1.5" marker-end="url(#arrow)"/>
<line x1="390" y1="165" x2="798" y2="239" stroke="#ff1f1f" stroke-width="1.7" marker-end="url(#arrow-red)"/>
<line x1="390" y1="195" x2="1120" y2="351" stroke="#111111" stroke-width="1.5" marker-end="url(#arrow)"/>
<line x1="390" y1="215" x2="1120" y2="435" stroke="#111111" stroke-width="1.5" marker-end="url(#arrow)"/>
<line x1="390" y1="235" x2="798" y2="358" stroke="#ff1f1f" stroke-width="1.7" marker-end="url(#arrow-red)"/>
<line x1="1120" y1="287" x2="390" y2="319" stroke="#111111" stroke-width="1.5" marker-end="url(#arrow)"/>
<line x1="1120" y1="361" x2="390" y2="393" stroke="#111111" stroke-width="1.5" marker-end="url(#arrow)"/>
<line x1="390" y1="403" x2="1120" y2="509" stroke="#111111" stroke-width="1.5" marker-end="url(#arrow)"/>
<line x1="1120" y1="445" x2="390" y2="477" stroke="#111111" stroke-width="1.5" marker-end="url(#arrow)"/>
<line x1="1120" y1="519" x2="390" y2="551" stroke="#111111" stroke-width="1.5" marker-end="url(#arrow)"/>
<line x1="390" y1="721" x2="1120" y2="753" stroke="#111111" stroke-width="1.5" marker-end="url(#arrow)"/>
<line x1="1120" y1="763" x2="390" y2="795" stroke="#111111" stroke-width="1.5" marker-end="url(#arrow)"/>
<line x1="382" y1="145" x2="398" y2="145" stroke="#667085" stroke-width="1"/>
<text x="372" y="150" text-anchor="end" font-size="14" fill="#667085" font-family="Arial, Noto Sans CJK SC, Microsoft YaHei, sans-serif">11ns</text>
<line x1="1112" y1="277" x2="1128" y2="277" stroke="#667085" stroke-width="1"/>
<text x="1138" y="282" text-anchor="start" font-size="14" fill="#667085" font-family="Arial, Noto Sans CJK SC, Microsoft YaHei, sans-serif">251ns</text>
<line x1="382" y1="165" x2="398" y2="165" stroke="#667085" stroke-width="1"/>
<text x="372" y="170" text-anchor="end" font-size="14" fill="#667085" font-family="Arial, Noto Sans CJK SC, Microsoft YaHei, sans-serif">17ns</text>
<line x1="382" y1="195" x2="398" y2="195" stroke="#667085" stroke-width="1"/>
<text x="372" y="200" text-anchor="end" font-size="14" fill="#667085" font-family="Arial, Noto Sans CJK SC, Microsoft YaHei, sans-serif">22ns</text>
<line x1="1112" y1="351" x2="1128" y2="351" stroke="#667085" stroke-width="1"/>
<text x="1138" y="356" text-anchor="start" font-size="14" fill="#667085" font-family="Arial, Noto Sans CJK SC, Microsoft YaHei, sans-serif">419ns</text>
<line x1="382" y1="215" x2="398" y2="215" stroke="#667085" stroke-width="1"/>
<text x="372" y="220" text-anchor="end" font-size="14" fill="#667085" font-family="Arial, Noto Sans CJK SC, Microsoft YaHei, sans-serif">27ns</text>
<line x1="1112" y1="435" x2="1128" y2="435" stroke="#667085" stroke-width="1"/>
<text x="1138" y="440" text-anchor="start" font-size="14" fill="#667085" font-family="Arial, Noto Sans CJK SC, Microsoft YaHei, sans-serif">586ns</text>
<line x1="382" y1="235" x2="398" y2="235" stroke="#667085" stroke-width="1"/>
<text x="372" y="240" text-anchor="end" font-size="14" fill="#667085" font-family="Arial, Noto Sans CJK SC, Microsoft YaHei, sans-serif">33ns</text>
<line x1="1112" y1="287" x2="1128" y2="287" stroke="#667085" stroke-width="1"/>
<text x="1138" y="292" text-anchor="start" font-size="14" fill="#667085" font-family="Arial, Noto Sans CJK SC, Microsoft YaHei, sans-serif">252ns</text>
<line x1="382" y1="319" x2="398" y2="319" stroke="#667085" stroke-width="1"/>
<text x="372" y="324" text-anchor="end" font-size="14" fill="#667085" font-family="Arial, Noto Sans CJK SC, Microsoft YaHei, sans-serif">316ns</text>
<line x1="1112" y1="361" x2="1128" y2="361" stroke="#667085" stroke-width="1"/>
<text x="1138" y="366" text-anchor="start" font-size="14" fill="#667085" font-family="Arial, Noto Sans CJK SC, Microsoft YaHei, sans-serif">420ns</text>
<line x1="382" y1="393" x2="398" y2="393" stroke="#667085" stroke-width="1"/>
<text x="372" y="398" text-anchor="end" font-size="14" fill="#667085" font-family="Arial, Noto Sans CJK SC, Microsoft YaHei, sans-serif">485ns</text>
<line x1="382" y1="403" x2="398" y2="403" stroke="#667085" stroke-width="1"/>
<text x="372" y="408" text-anchor="end" font-size="14" fill="#667085" font-family="Arial, Noto Sans CJK SC, Microsoft YaHei, sans-serif">486ns</text>
<line x1="1112" y1="509" x2="1128" y2="509" stroke="#667085" stroke-width="1"/>
<text x="1138" y="514" text-anchor="start" font-size="14" fill="#667085" font-family="Arial, Noto Sans CJK SC, Microsoft YaHei, sans-serif">753ns</text>
<line x1="1112" y1="445" x2="1128" y2="445" stroke="#667085" stroke-width="1"/>
<text x="1138" y="450" text-anchor="start" font-size="14" fill="#667085" font-family="Arial, Noto Sans CJK SC, Microsoft YaHei, sans-serif">587ns</text>
<line x1="382" y1="477" x2="398" y2="477" stroke="#667085" stroke-width="1"/>
<text x="372" y="482" text-anchor="end" font-size="14" fill="#667085" font-family="Arial, Noto Sans CJK SC, Microsoft YaHei, sans-serif">652ns</text>
<line x1="1112" y1="519" x2="1128" y2="519" stroke="#667085" stroke-width="1"/>
<text x="1138" y="524" text-anchor="start" font-size="14" fill="#667085" font-family="Arial, Noto Sans CJK SC, Microsoft YaHei, sans-serif">754ns</text>
<line x1="382" y1="551" x2="398" y2="551" stroke="#667085" stroke-width="1"/>
<text x="372" y="556" text-anchor="end" font-size="14" fill="#667085" font-family="Arial, Noto Sans CJK SC, Microsoft YaHei, sans-serif">819ns</text>
<line x1="382" y1="721" x2="398" y2="721" stroke="#667085" stroke-width="1"/>
<text x="372" y="726" text-anchor="end" font-size="14" fill="#667085" font-family="Arial, Noto Sans CJK SC, Microsoft YaHei, sans-serif">26420ns</text>
<line x1="1112" y1="753" x2="1128" y2="753" stroke="#667085" stroke-width="1"/>
<text x="1138" y="758" text-anchor="start" font-size="14" fill="#667085" font-family="Arial, Noto Sans CJK SC, Microsoft YaHei, sans-serif">26660ns</text>
<line x1="1112" y1="763" x2="1128" y2="763" stroke="#667085" stroke-width="1"/>
<text x="1138" y="768" text-anchor="start" font-size="14" fill="#667085" font-family="Arial, Noto Sans CJK SC, Microsoft YaHei, sans-serif">26661ns</text>
<line x1="382" y1="795" x2="398" y2="795" stroke="#667085" stroke-width="1"/>
<text x="372" y="800" text-anchor="end" font-size="14" fill="#667085" font-family="Arial, Noto Sans CJK SC, Microsoft YaHei, sans-serif">26726ns</text>
<g transform="translate(638.2,189.9) rotate(10.25)">
<text x="0" y="-7" text-anchor="middle" font-size="18" font-family="Arial, Noto Sans CJK SC, Microsoft YaHei, sans-serif" font-style="italic" fill="#111111" stroke="white" stroke-width="5" paint-order="stroke fill">psn=0</text>
</g>
<text x="812" y="247" font-size="34" font-weight="700" fill="#ff1f1f">X</text>
<text x="840" y="245" font-size="14" fill="#ff1f1f">drop</text>
<g transform="translate(561.4,196.1) rotate(10.28)">
<text x="0" y="-7" text-anchor="middle" font-size="18" font-family="Arial, Noto Sans CJK SC, Microsoft YaHei, sans-serif" font-style="italic" fill="#ff1f1f" stroke="white" stroke-width="5" paint-order="stroke fill">psn=1</text>
</g>
<g transform="translate(638.2,248.0) rotate(12.06)">
<text x="0" y="-7" text-anchor="middle" font-size="18" font-family="Arial, Noto Sans CJK SC, Microsoft YaHei, sans-serif" font-style="italic" fill="#111111" stroke="white" stroke-width="5" paint-order="stroke fill">psn=2</text>
</g>
<g transform="translate(696.6,307.4) rotate(16.77)">
<text x="0" y="-7" text-anchor="middle" font-size="18" font-family="Arial, Noto Sans CJK SC, Microsoft YaHei, sans-serif" font-style="italic" fill="#111111" stroke="white" stroke-width="5" paint-order="stroke fill">psn=3</text>
</g>
<text x="812" y="366" font-size="34" font-weight="700" fill="#ff1f1f">X</text>
<text x="840" y="364" font-size="14" fill="#ff1f1f">drop</text>
<g transform="translate(561.4,286.7) rotate(16.78)">
<text x="0" y="-7" text-anchor="middle" font-size="18" font-family="Arial, Noto Sans CJK SC, Microsoft YaHei, sans-serif" font-style="italic" fill="#ff1f1f" stroke="white" stroke-width="5" paint-order="stroke fill">psn=4</text>
</g>
<g transform="translate(784.2,301.7) rotate(-2.51)">
<text x="0" y="-7" text-anchor="middle" font-size="17" font-family="Arial, Noto Sans CJK SC, Microsoft YaHei, sans-serif" font-style="italic" fill="#111111" stroke="white" stroke-width="5" paint-order="stroke fill">ACK(PSN=0)</text>
</g>
<g transform="translate(711.2,378.9) rotate(-2.51)">
<text x="0" y="-7" text-anchor="middle" font-size="15" font-family="Arial, Noto Sans CJK SC, Microsoft YaHei, sans-serif" font-style="italic" fill="#111111" stroke="white" stroke-width="5" paint-order="stroke fill">SACK(PSN=0,MAX=2,BM=101)</text>
</g>
<g transform="translate(696.6,447.5) rotate(8.26)">
<text x="0" y="-7" text-anchor="middle" font-size="18" font-family="Arial, Noto Sans CJK SC, Microsoft YaHei, sans-serif" font-style="italic" fill="#111111" stroke="white" stroke-width="5" paint-order="stroke fill">psn=1</text>
</g>
<g transform="translate(755.0,461.0) rotate(-2.51)">
<text x="0" y="-7" text-anchor="middle" font-size="15" font-family="Arial, Noto Sans CJK SC, Microsoft YaHei, sans-serif" font-style="italic" fill="#111111" stroke="white" stroke-width="5" paint-order="stroke fill">SACK(PSN=0,MAX=3,BM=1011)</text>
</g>
<g transform="translate(784.2,533.7) rotate(-2.51)">
<text x="0" y="-7" text-anchor="middle" font-size="17" font-family="Arial, Noto Sans CJK SC, Microsoft YaHei, sans-serif" font-style="italic" fill="#111111" stroke="white" stroke-width="5" paint-order="stroke fill">ACK(PSN=3)</text>
</g>
<g transform="translate(638.2,731.9) rotate(2.51)">
<text x="0" y="-7" text-anchor="middle" font-size="18" font-family="Arial, Noto Sans CJK SC, Microsoft YaHei, sans-serif" font-style="italic" fill="#111111" stroke="white" stroke-width="5" paint-order="stroke fill">psn=4</text>
</g>
<g transform="translate(784.2,777.7) rotate(-2.51)">
<text x="0" y="-7" text-anchor="middle" font-size="17" font-family="Arial, Noto Sans CJK SC, Microsoft YaHei, sans-serif" font-style="italic" fill="#111111" stroke="white" stroke-width="5" paint-order="stroke fill">ACK(PSN=4)</text>
</g>
<text x="750" y="1055" font-size="32" text-anchor="middle" fill="#111111" font-weight="700">图 6-29  SELE_fast/tail_tp_packet_loss</text>
</svg>
