<svg xmlns="http://www.w3.org/2000/svg" width="1500" height="1290" viewBox="0 0 1500 1290">
<defs>
<marker id="arrow" markerWidth="9" markerHeight="9" refX="8" refY="4.5" orient="auto" markerUnits="strokeWidth">
<path d="M0,0 L9,4.5 L0,9 z" fill="#111111"/>
</marker>
<marker id="arrow-purple" markerWidth="9" markerHeight="9" refX="8" refY="4.5" orient="auto" markerUnits="strokeWidth">
<path d="M0,0 L12,6 L0,12 z" fill="#6941C6"/>
</marker>
<marker id="arrow-red" markerWidth="9" markerHeight="9" refX="8" refY="4.5" orient="auto" markerUnits="strokeWidth">
<path d="M0,0 L9,4.5 L0,9 z" fill="#ff1f1f"/>
</marker>
<marker id="axis-arrow" markerWidth="12" markerHeight="12" refX="6" refY="10" orient="auto">
<path d="M1,1 L11,1 L6,11 z" fill="#111111"/>
</marker>
</defs>
<rect x="0" y="0" width="100%" height="100%" fill="white"/>
<style>text{font-family:Arial,"Noto Sans CJK SC","Microsoft YaHei",sans-serif;}</style>
<text x="390" y="55" font-size="32" text-anchor="middle" fill="#111111">TP Sender</text>
<text x="1120" y="55" font-size="32" text-anchor="middle" fill="#111111">TP Receiver</text>
<line x1="390" y1="85" x2="390" y2="1170" stroke="#111111" stroke-width="1.4" marker-end="url(#axis-arrow)"/>
<line x1="1120" y1="85" x2="1120" y2="1170" stroke="#111111" stroke-width="1.4" marker-end="url(#axis-arrow)"/>
<path d="M 352 289 C 332 289 332 307 332 325 L 332 386.0 C 332 398.0 320 406.0 307 406.0 C 320 406.0 332 414.0 332 426.0 L 332 487 C 332 505 332 523 352 523" fill="none" stroke="#4f7fc9" stroke-width="2"/>
<text x="240" y="414.0" font-size="30" fill="#4f7fc9">RTO</text>
<text x="226" y="444.0" font-size="14" fill="#4f7fc9">25600ns</text>
<text x="42" y="281" font-size="14" fill="#4f7fc9">start: TPACK PSN=0 arrived @ 316ns</text>
<text x="42" y="545" font-size="14" fill="#4f7fc9">timeout @ 25916ns; retrans DATA PSN=1 @ 25918ns</text>
<path d="M 290 523 C 270 523 270 541 270 559 L 270 645.0 C 270 657.0 258 665.0 245 665.0 C 258 665.0 270 673.0 270 685.0 L 270 771 C 270 789 270 807 290 807" fill="none" stroke="#4f7fc9" stroke-width="2"/>
<text x="178" y="673.0" font-size="30" fill="#4f7fc9">RTO</text>
<text x="164" y="703.0" font-size="14" fill="#4f7fc9">51200ns</text>
<text x="42" y="515" font-size="14" fill="#4f7fc9">start: timeout @ 25916ns</text>
<text x="42" y="829" font-size="14" fill="#4f7fc9">timeout @ 77116ns; retrans DATA PSN=1 @ 77117ns</text>
<line x1="390" y1="145" x2="1120" y2="247" stroke="#111111" stroke-width="1.5" marker-end="url(#arrow)"/>
<line x1="390" y1="165" x2="798" y2="222" stroke="#ff1f1f" stroke-width="1.7" marker-end="url(#arrow-red)"/>
<line x1="390" y1="195" x2="1120" y2="321" stroke="#111111" stroke-width="1.5" marker-end="url(#arrow)"/>
<line x1="390" y1="215" x2="1120" y2="353" stroke="#111111" stroke-width="1.5" marker-end="url(#arrow)"/>
<line x1="1120" y1="257" x2="390" y2="289" stroke="#111111" stroke-width="1.5" marker-end="url(#arrow)"/>
<line x1="390" y1="523" x2="798" y2="600" stroke="#ff1f1f" stroke-width="1.7" marker-end="url(#arrow-red)"/>
<line x1="390" y1="553" x2="1120" y2="605" stroke="#111111" stroke-width="1.5" marker-end="url(#arrow)"/>
<line x1="390" y1="573" x2="1120" y2="637" stroke="#111111" stroke-width="1.5" marker-end="url(#arrow)"/>
<line x1="390" y1="807" x2="1120" y2="879" stroke="#111111" stroke-width="1.5" marker-end="url(#arrow)"/>
<line x1="390" y1="827" x2="1120" y2="953" stroke="#111111" stroke-width="1.5" marker-end="url(#arrow)"/>
<line x1="390" y1="847" x2="1120" y2="985" stroke="#111111" stroke-width="1.5" marker-end="url(#arrow)"/>
<line x1="1120" y1="889" x2="390" y2="921" stroke="#111111" stroke-width="1.5" marker-end="url(#arrow)"/>
<line x1="382" y1="145" x2="398" y2="145" stroke="#667085" stroke-width="1"/>
<text x="372" y="150" text-anchor="end" font-size="14" fill="#667085" font-family="Arial, Noto Sans CJK SC, Microsoft YaHei, sans-serif">11ns</text>
<line x1="1112" y1="247" x2="1128" y2="247" stroke="#667085" stroke-width="1"/>
<text x="1138" y="252" text-anchor="start" font-size="14" fill="#667085" font-family="Arial, Noto Sans CJK SC, Microsoft YaHei, sans-serif">251ns</text>
<line x1="382" y1="165" x2="398" y2="165" stroke="#667085" stroke-width="1"/>
<text x="372" y="170" text-anchor="end" font-size="14" fill="#667085" font-family="Arial, Noto Sans CJK SC, Microsoft YaHei, sans-serif">17ns</text>
<line x1="382" y1="195" x2="398" y2="195" stroke="#667085" stroke-width="1"/>
<text x="372" y="200" text-anchor="end" font-size="14" fill="#667085" font-family="Arial, Noto Sans CJK SC, Microsoft YaHei, sans-serif">22ns</text>
<line x1="1112" y1="321" x2="1128" y2="321" stroke="#667085" stroke-width="1"/>
<text x="1138" y="326" text-anchor="start" font-size="14" fill="#667085" font-family="Arial, Noto Sans CJK SC, Microsoft YaHei, sans-serif">419ns</text>
<line x1="382" y1="215" x2="398" y2="215" stroke="#667085" stroke-width="1"/>
<text x="372" y="220" text-anchor="end" font-size="14" fill="#667085" font-family="Arial, Noto Sans CJK SC, Microsoft YaHei, sans-serif">27ns</text>
<line x1="1112" y1="353" x2="1128" y2="353" stroke="#667085" stroke-width="1"/>
<text x="1138" y="358" text-anchor="start" font-size="14" fill="#667085" font-family="Arial, Noto Sans CJK SC, Microsoft YaHei, sans-serif">586ns</text>
<line x1="1112" y1="257" x2="1128" y2="257" stroke="#667085" stroke-width="1"/>
<text x="1138" y="262" text-anchor="start" font-size="14" fill="#667085" font-family="Arial, Noto Sans CJK SC, Microsoft YaHei, sans-serif">252ns</text>
<line x1="382" y1="289" x2="398" y2="289" stroke="#667085" stroke-width="1"/>
<text x="372" y="294" text-anchor="end" font-size="14" fill="#667085" font-family="Arial, Noto Sans CJK SC, Microsoft YaHei, sans-serif">316ns</text>
<line x1="382" y1="523" x2="398" y2="523" stroke="#667085" stroke-width="1"/>
<text x="372" y="528" text-anchor="end" font-size="14" fill="#667085" font-family="Arial, Noto Sans CJK SC, Microsoft YaHei, sans-serif">25918ns</text>
<line x1="382" y1="553" x2="398" y2="553" stroke="#667085" stroke-width="1"/>
<text x="372" y="558" text-anchor="end" font-size="14" fill="#667085" font-family="Arial, Noto Sans CJK SC, Microsoft YaHei, sans-serif">25923ns</text>
<line x1="1112" y1="605" x2="1128" y2="605" stroke="#667085" stroke-width="1"/>
<text x="1138" y="610" text-anchor="start" font-size="14" fill="#667085" font-family="Arial, Noto Sans CJK SC, Microsoft YaHei, sans-serif">26163ns</text>
<line x1="382" y1="573" x2="398" y2="573" stroke="#667085" stroke-width="1"/>
<text x="372" y="578" text-anchor="end" font-size="14" fill="#667085" font-family="Arial, Noto Sans CJK SC, Microsoft YaHei, sans-serif">25928ns</text>
<line x1="1112" y1="637" x2="1128" y2="637" stroke="#667085" stroke-width="1"/>
<text x="1138" y="642" text-anchor="start" font-size="14" fill="#667085" font-family="Arial, Noto Sans CJK SC, Microsoft YaHei, sans-serif">26330ns</text>
<line x1="382" y1="807" x2="398" y2="807" stroke="#667085" stroke-width="1"/>
<text x="372" y="812" text-anchor="end" font-size="14" fill="#667085" font-family="Arial, Noto Sans CJK SC, Microsoft YaHei, sans-serif">77117ns</text>
<line x1="1112" y1="879" x2="1128" y2="879" stroke="#667085" stroke-width="1"/>
<text x="1138" y="884" text-anchor="start" font-size="14" fill="#667085" font-family="Arial, Noto Sans CJK SC, Microsoft YaHei, sans-serif">77357ns</text>
<line x1="382" y1="827" x2="398" y2="827" stroke="#667085" stroke-width="1"/>
<text x="372" y="832" text-anchor="end" font-size="14" fill="#667085" font-family="Arial, Noto Sans CJK SC, Microsoft YaHei, sans-serif">77123ns</text>
<line x1="1112" y1="953" x2="1128" y2="953" stroke="#667085" stroke-width="1"/>
<text x="1138" y="958" text-anchor="start" font-size="14" fill="#667085" font-family="Arial, Noto Sans CJK SC, Microsoft YaHei, sans-serif">77524ns</text>
<line x1="382" y1="847" x2="398" y2="847" stroke="#667085" stroke-width="1"/>
<text x="372" y="852" text-anchor="end" font-size="14" fill="#667085" font-family="Arial, Noto Sans CJK SC, Microsoft YaHei, sans-serif">77128ns</text>
<line x1="1112" y1="985" x2="1128" y2="985" stroke="#667085" stroke-width="1"/>
<text x="1138" y="990" text-anchor="start" font-size="14" fill="#667085" font-family="Arial, Noto Sans CJK SC, Microsoft YaHei, sans-serif">77691ns</text>
<line x1="1112" y1="889" x2="1128" y2="889" stroke="#667085" stroke-width="1"/>
<text x="1138" y="894" text-anchor="start" font-size="14" fill="#667085" font-family="Arial, Noto Sans CJK SC, Microsoft YaHei, sans-serif">77358ns</text>
<line x1="382" y1="921" x2="398" y2="921" stroke="#667085" stroke-width="1"/>
<text x="372" y="926" text-anchor="end" font-size="14" fill="#667085" font-family="Arial, Noto Sans CJK SC, Microsoft YaHei, sans-serif">77423ns</text>
<g transform="translate(638.2,179.7) rotate(7.95)">
<text x="0" y="-7" text-anchor="middle" font-size="18" font-family="Arial, Noto Sans CJK SC, Microsoft YaHei, sans-serif" font-style="italic" fill="#111111" stroke="white" stroke-width="5" paint-order="stroke fill">psn=0</text>
</g>
<text x="812" y="230" font-size="34" font-weight="700" fill="#ff1f1f">X</text>
<text x="840" y="228" font-size="14" fill="#ff1f1f">drop</text>
<g transform="translate(561.4,188.9) rotate(7.95)">
<text x="0" y="-7" text-anchor="middle" font-size="18" font-family="Arial, Noto Sans CJK SC, Microsoft YaHei, sans-serif" font-style="italic" fill="#ff1f1f" stroke="white" stroke-width="5" paint-order="stroke fill">psn=1</text>
</g>
<g transform="translate(638.2,237.8) rotate(9.79)">
<text x="0" y="-7" text-anchor="middle" font-size="18" font-family="Arial, Noto Sans CJK SC, Microsoft YaHei, sans-serif" font-style="italic" fill="#111111" stroke="white" stroke-width="5" paint-order="stroke fill">psn=2</text>
</g>
<g transform="translate(696.6,273.0) rotate(10.70)">
<text x="0" y="-7" text-anchor="middle" font-size="18" font-family="Arial, Noto Sans CJK SC, Microsoft YaHei, sans-serif" font-style="italic" fill="#111111" stroke="white" stroke-width="5" paint-order="stroke fill">psn=3</text>
</g>
<g transform="translate(784.2,271.7) rotate(-2.51)">
<text x="0" y="-7" text-anchor="middle" font-size="17" font-family="Arial, Noto Sans CJK SC, Microsoft YaHei, sans-serif" font-style="italic" fill="#111111" stroke="white" stroke-width="5" paint-order="stroke fill">ACK(PSN=0)</text>
</g>
<text x="812" y="608" font-size="34" font-weight="700" fill="#ff1f1f">X</text>
<text x="840" y="606" font-size="14" fill="#ff1f1f">drop</text>
<g transform="translate(561.4,555.3) rotate(10.69)">
<text x="0" y="-7" text-anchor="middle" font-size="18" font-family="Arial, Noto Sans CJK SC, Microsoft YaHei, sans-serif" font-style="italic" fill="#ff1f1f" stroke="white" stroke-width="5" paint-order="stroke fill">psn=1</text>
</g>
<g transform="translate(696.6,574.8) rotate(4.07)">
<text x="0" y="-7" text-anchor="middle" font-size="18" font-family="Arial, Noto Sans CJK SC, Microsoft YaHei, sans-serif" font-style="italic" fill="#111111" stroke="white" stroke-width="5" paint-order="stroke fill">psn=2</text>
</g>
<g transform="translate(638.2,594.8) rotate(5.01)">
<text x="0" y="-7" text-anchor="middle" font-size="18" font-family="Arial, Noto Sans CJK SC, Microsoft YaHei, sans-serif" font-style="italic" fill="#111111" stroke="white" stroke-width="5" paint-order="stroke fill">psn=3</text>
</g>
<g transform="translate(696.6,837.2) rotate(5.63)">
<text x="0" y="-7" text-anchor="middle" font-size="18" font-family="Arial, Noto Sans CJK SC, Microsoft YaHei, sans-serif" font-style="italic" fill="#111111" stroke="white" stroke-width="5" paint-order="stroke fill">psn=1</text>
</g>
<g transform="translate(638.2,869.8) rotate(9.79)">
<text x="0" y="-7" text-anchor="middle" font-size="18" font-family="Arial, Noto Sans CJK SC, Microsoft YaHei, sans-serif" font-style="italic" fill="#111111" stroke="white" stroke-width="5" paint-order="stroke fill">psn=2</text>
</g>
<g transform="translate(696.6,905.0) rotate(10.70)">
<text x="0" y="-7" text-anchor="middle" font-size="18" font-family="Arial, Noto Sans CJK SC, Microsoft YaHei, sans-serif" font-style="italic" fill="#111111" stroke="white" stroke-width="5" paint-order="stroke fill">psn=3</text>
</g>
<g transform="translate(784.2,903.7) rotate(-2.51)">
<text x="0" y="-7" text-anchor="middle" font-size="17" font-family="Arial, Noto Sans CJK SC, Microsoft YaHei, sans-serif" font-style="italic" fill="#111111" stroke="white" stroke-width="5" paint-order="stroke fill">ACK(PSN=3)</text>
</g>
<text x="750" y="1245" font-size="32" text-anchor="middle" fill="#111111" font-weight="700">相似图 6-19  GBN_unfast/non_first_tp_packet_loss</text>
</svg>
