<svg xmlns="http://www.w3.org/2000/svg" width="1500" height="980" viewBox="0 0 1500 980">
<defs>
<marker id="arrow" markerWidth="9" markerHeight="9" refX="8" refY="4.5" orient="auto" markerUnits="strokeWidth">
<path d="M0,0 L9,4.5 L0,9 z" fill="#111111"/>
</marker>
<marker id="arrow-purple" markerWidth="9" markerHeight="9" refX="8" refY="4.5" orient="auto" markerUnits="strokeWidth">
<path d="M0,0 L12,6 L0,12 z" fill="#6941C6"/>
</marker>
<marker id="arrow-red" markerWidth="9" markerHeight="9" refX="8" refY="4.5" orient="auto" markerUnits="strokeWidth">
<path d="M0,0 L9,4.5 L0,9 z" fill="#ff1f1f"/>
</marker>
<marker id="axis-arrow" markerWidth="12" markerHeight="12" refX="6" refY="10" orient="auto">
<path d="M1,1 L11,1 L6,11 z" fill="#111111"/>
</marker>
</defs>
<rect x="0" y="0" width="100%" height="100%" fill="white"/>
<style>text{font-family:Arial,"Noto Sans CJK SC","Microsoft YaHei",sans-serif;}</style>
<text x="390" y="55" font-size="32" text-anchor="middle" fill="#111111">TP Sender</text>
<text x="1120" y="55" font-size="32" text-anchor="middle" fill="#111111">TP Receiver</text>
<line x1="390" y1="85" x2="390" y2="860" stroke="#111111" stroke-width="1.4" marker-end="url(#axis-arrow)"/>
<line x1="1120" y1="85" x2="1120" y2="860" stroke="#111111" stroke-width="1.4" marker-end="url(#axis-arrow)"/>
<path d="M 352 279 C 332 279 332 297 332 315 L 332 370.0 C 332 382.0 320 390.0 307 390.0 C 320 390.0 332 398.0 332 410.0 L 332 465 C 332 483 332 501 352 501" fill="none" stroke="#4f7fc9" stroke-width="2"/>
<text x="240" y="398.0" font-size="30" fill="#4f7fc9">RTO</text>
<text x="226" y="428.0" font-size="14" fill="#4f7fc9">25600ns</text>
<text x="42" y="271" font-size="14" fill="#4f7fc9">start: TPACK PSN=0 arrived @ 316ns</text>
<text x="42" y="523" font-size="14" fill="#4f7fc9">canceled by TPACK PSN=3 @ 1183ns (before timeout 25916ns)</text>
<line x1="390" y1="145" x2="1120" y2="237" stroke="#111111" stroke-width="1.5" marker-end="url(#arrow)"/>
<line x1="390" y1="165" x2="1120" y2="459" stroke="#6941C6" stroke-width="1.4" stroke-dasharray="8 5" stroke-opacity="0.68" marker-end="url(#arrow-purple)"/>
<line x1="390" y1="185" x2="1120" y2="311" stroke="#111111" stroke-width="1.5" marker-end="url(#arrow)"/>
<line x1="390" y1="205" x2="1120" y2="385" stroke="#111111" stroke-width="1.5" marker-end="url(#arrow)"/>
<line x1="1120" y1="247" x2="390" y2="279" stroke="#111111" stroke-width="1.5" marker-end="url(#arrow)"/>
<line x1="1120" y1="321" x2="390" y2="353" stroke="#111111" stroke-width="1.5" marker-end="url(#arrow)"/>
<line x1="1120" y1="395" x2="390" y2="427" stroke="#111111" stroke-width="1.5" marker-end="url(#arrow)"/>
<line x1="1120" y1="469" x2="390" y2="501" stroke="#111111" stroke-width="1.5" marker-end="url(#arrow)"/>
<line x1="382" y1="145" x2="398" y2="145" stroke="#667085" stroke-width="1"/>
<text x="372" y="150" text-anchor="end" font-size="14" fill="#667085" font-family="Arial, Noto Sans CJK SC, Microsoft YaHei, sans-serif">11ns</text>
<line x1="1112" y1="237" x2="1128" y2="237" stroke="#667085" stroke-width="1"/>
<text x="1138" y="242" text-anchor="start" font-size="14" fill="#667085" font-family="Arial, Noto Sans CJK SC, Microsoft YaHei, sans-serif">251ns</text>
<line x1="382" y1="165" x2="398" y2="165" stroke="#667085" stroke-width="1"/>
<text x="372" y="170" text-anchor="end" font-size="14" fill="#667085" font-family="Arial, Noto Sans CJK SC, Microsoft YaHei, sans-serif">16ns</text>
<line x1="1112" y1="459" x2="1128" y2="459" stroke="#667085" stroke-width="1"/>
<text x="1138" y="464" text-anchor="start" font-size="14" fill="#667085" font-family="Arial, Noto Sans CJK SC, Microsoft YaHei, sans-serif">1118ns</text>
<line x1="382" y1="185" x2="398" y2="185" stroke="#667085" stroke-width="1"/>
<text x="372" y="190" text-anchor="end" font-size="14" fill="#667085" font-family="Arial, Noto Sans CJK SC, Microsoft YaHei, sans-serif">22ns</text>
<line x1="1112" y1="311" x2="1128" y2="311" stroke="#667085" stroke-width="1"/>
<text x="1138" y="316" text-anchor="start" font-size="14" fill="#667085" font-family="Arial, Noto Sans CJK SC, Microsoft YaHei, sans-serif">419ns</text>
<line x1="382" y1="205" x2="398" y2="205" stroke="#667085" stroke-width="1"/>
<text x="372" y="210" text-anchor="end" font-size="14" fill="#667085" font-family="Arial, Noto Sans CJK SC, Microsoft YaHei, sans-serif">27ns</text>
<line x1="1112" y1="385" x2="1128" y2="385" stroke="#667085" stroke-width="1"/>
<text x="1138" y="390" text-anchor="start" font-size="14" fill="#667085" font-family="Arial, Noto Sans CJK SC, Microsoft YaHei, sans-serif">586ns</text>
<line x1="1112" y1="247" x2="1128" y2="247" stroke="#667085" stroke-width="1"/>
<text x="1138" y="252" text-anchor="start" font-size="14" fill="#667085" font-family="Arial, Noto Sans CJK SC, Microsoft YaHei, sans-serif">252ns</text>
<line x1="382" y1="279" x2="398" y2="279" stroke="#667085" stroke-width="1"/>
<text x="372" y="284" text-anchor="end" font-size="14" fill="#667085" font-family="Arial, Noto Sans CJK SC, Microsoft YaHei, sans-serif">316ns</text>
<line x1="1112" y1="321" x2="1128" y2="321" stroke="#667085" stroke-width="1"/>
<text x="1138" y="326" text-anchor="start" font-size="14" fill="#667085" font-family="Arial, Noto Sans CJK SC, Microsoft YaHei, sans-serif">420ns</text>
<line x1="382" y1="353" x2="398" y2="353" stroke="#667085" stroke-width="1"/>
<text x="372" y="358" text-anchor="end" font-size="14" fill="#667085" font-family="Arial, Noto Sans CJK SC, Microsoft YaHei, sans-serif">485ns</text>
<line x1="1112" y1="395" x2="1128" y2="395" stroke="#667085" stroke-width="1"/>
<text x="1138" y="400" text-anchor="start" font-size="14" fill="#667085" font-family="Arial, Noto Sans CJK SC, Microsoft YaHei, sans-serif">587ns</text>
<line x1="382" y1="427" x2="398" y2="427" stroke="#667085" stroke-width="1"/>
<text x="372" y="432" text-anchor="end" font-size="14" fill="#667085" font-family="Arial, Noto Sans CJK SC, Microsoft YaHei, sans-serif">652ns</text>
<line x1="1112" y1="469" x2="1128" y2="469" stroke="#667085" stroke-width="1"/>
<text x="1138" y="474" text-anchor="start" font-size="14" fill="#667085" font-family="Arial, Noto Sans CJK SC, Microsoft YaHei, sans-serif">1119ns</text>
<line x1="382" y1="501" x2="398" y2="501" stroke="#667085" stroke-width="1"/>
<text x="372" y="506" text-anchor="end" font-size="14" fill="#667085" font-family="Arial, Noto Sans CJK SC, Microsoft YaHei, sans-serif">1183ns</text>
<g transform="translate(638.2,176.3) rotate(7.18)">
<text x="0" y="-7" text-anchor="middle" font-size="18" font-family="Arial, Noto Sans CJK SC, Microsoft YaHei, sans-serif" font-style="italic" fill="#111111" stroke="white" stroke-width="5" paint-order="stroke fill">psn=0</text>
</g>
<g transform="translate(638.2,265.0) rotate(21.94)">
<text x="0" y="-7" text-anchor="middle" font-size="17" font-family="Arial, Noto Sans CJK SC, Microsoft YaHei, sans-serif" font-style="italic" fill="#6941C6" stroke="white" stroke-width="5" paint-order="stroke fill">psn=1, delay 700ns</text>
</g>
<g transform="translate(638.2,227.8) rotate(9.79)">
<text x="0" y="-7" text-anchor="middle" font-size="18" font-family="Arial, Noto Sans CJK SC, Microsoft YaHei, sans-serif" font-style="italic" fill="#111111" stroke="white" stroke-width="5" paint-order="stroke fill">psn=2</text>
</g>
<g transform="translate(696.6,280.6) rotate(13.85)">
<text x="0" y="-7" text-anchor="middle" font-size="18" font-family="Arial, Noto Sans CJK SC, Microsoft YaHei, sans-serif" font-style="italic" fill="#111111" stroke="white" stroke-width="5" paint-order="stroke fill">psn=3</text>
</g>
<g transform="translate(784.2,261.7) rotate(-2.51)">
<text x="0" y="-7" text-anchor="middle" font-size="17" font-family="Arial, Noto Sans CJK SC, Microsoft YaHei, sans-serif" font-style="italic" fill="#111111" stroke="white" stroke-width="5" paint-order="stroke fill">ACK(PSN=0)</text>
</g>
<g transform="translate(711.2,338.9) rotate(-2.51)">
<text x="0" y="-7" text-anchor="middle" font-size="15" font-family="Arial, Noto Sans CJK SC, Microsoft YaHei, sans-serif" font-style="italic" fill="#111111" stroke="white" stroke-width="5" paint-order="stroke fill">SACK(PSN=0,MAX=2,BM=101)</text>
</g>
<g transform="translate(755.0,411.0) rotate(-2.51)">
<text x="0" y="-7" text-anchor="middle" font-size="15" font-family="Arial, Noto Sans CJK SC, Microsoft YaHei, sans-serif" font-style="italic" fill="#111111" stroke="white" stroke-width="5" paint-order="stroke fill">SACK(PSN=0,MAX=3,BM=1011)</text>
</g>
<g transform="translate(784.2,483.7) rotate(-2.51)">
<text x="0" y="-7" text-anchor="middle" font-size="17" font-family="Arial, Noto Sans CJK SC, Microsoft YaHei, sans-serif" font-style="italic" fill="#111111" stroke="white" stroke-width="5" paint-order="stroke fill">ACK(PSN=3)</text>
</g>
<text x="750" y="935" font-size="32" text-anchor="middle" fill="#111111" font-weight="700">图 6-31  SELE_unfast/out_of_order_no_actual_loss</text>
</svg>
