<svg xmlns="http://www.w3.org/2000/svg" width="1500" height="1016" viewBox="0 0 1500 1016">
<defs>
<marker id="arrow" markerWidth="9" markerHeight="9" refX="8" refY="4.5" orient="auto" markerUnits="strokeWidth">
<path d="M0,0 L9,4.5 L0,9 z" fill="#111111"/>
</marker>
<marker id="arrow-purple" markerWidth="9" markerHeight="9" refX="8" refY="4.5" orient="auto" markerUnits="strokeWidth">
<path d="M0,0 L12,6 L0,12 z" fill="#6941C6"/>
</marker>
<marker id="arrow-red" markerWidth="9" markerHeight="9" refX="8" refY="4.5" orient="auto" markerUnits="strokeWidth">
<path d="M0,0 L9,4.5 L0,9 z" fill="#ff1f1f"/>
</marker>
<marker id="axis-arrow" markerWidth="12" markerHeight="12" refX="6" refY="10" orient="auto">
<path d="M1,1 L11,1 L6,11 z" fill="#111111"/>
</marker>
</defs>
<rect x="0" y="0" width="100%" height="100%" fill="white"/>
<style>text{font-family:Arial,"Noto Sans CJK SC","Microsoft YaHei",sans-serif;}</style>
<text x="390" y="55" font-size="32" text-anchor="middle" fill="#111111">TP Sender</text>
<text x="1120" y="55" font-size="32" text-anchor="middle" fill="#111111">TP Receiver</text>
<line x1="390" y1="85" x2="390" y2="896" stroke="#111111" stroke-width="1.4" marker-end="url(#axis-arrow)"/>
<line x1="1120" y1="85" x2="1120" y2="896" stroke="#111111" stroke-width="1.4" marker-end="url(#axis-arrow)"/>
<path d="M 352 373 C 332 373 332 391 332 409 L 332 438.0 C 332 450.0 320 458.0 307 458.0 C 320 458.0 332 466.0 332 478.0 L 332 507 C 332 525 332 543 352 543" fill="none" stroke="#4f7fc9" stroke-width="2"/>
<text x="240" y="466.0" font-size="30" fill="#4f7fc9">RTO</text>
<text x="226" y="496.0" font-size="14" fill="#4f7fc9">25600ns</text>
<text x="42" y="365" font-size="14" fill="#4f7fc9">start: TPACK PSN=1 arrived @ 483ns</text>
<text x="42" y="565" font-size="14" fill="#4f7fc9">timeout @ 26083ns; retrans DATA PSN=2 @ 26084ns</text>
<line x1="390" y1="145" x2="1120" y2="257" stroke="#111111" stroke-width="1.5" marker-end="url(#arrow)"/>
<line x1="390" y1="165" x2="1120" y2="331" stroke="#111111" stroke-width="1.5" marker-end="url(#arrow)"/>
<line x1="390" y1="185" x2="798" y2="278" stroke="#ff1f1f" stroke-width="1.7" marker-end="url(#arrow-red)"/>
<line x1="390" y1="215" x2="798" y2="308" stroke="#ff1f1f" stroke-width="1.7" marker-end="url(#arrow-red)"/>
<line x1="1120" y1="267" x2="390" y2="299" stroke="#111111" stroke-width="1.5" marker-end="url(#arrow)"/>
<line x1="1120" y1="341" x2="390" y2="373" stroke="#111111" stroke-width="1.5" marker-end="url(#arrow)"/>
<line x1="390" y1="543" x2="1120" y2="595" stroke="#111111" stroke-width="1.5" marker-end="url(#arrow)"/>
<line x1="390" y1="563" x2="1120" y2="669" stroke="#111111" stroke-width="1.5" marker-end="url(#arrow)"/>
<line x1="1120" y1="605" x2="390" y2="637" stroke="#111111" stroke-width="1.5" marker-end="url(#arrow)"/>
<line x1="1120" y1="679" x2="390" y2="711" stroke="#111111" stroke-width="1.5" marker-end="url(#arrow)"/>
<line x1="382" y1="145" x2="398" y2="145" stroke="#667085" stroke-width="1"/>
<text x="372" y="150" text-anchor="end" font-size="14" fill="#667085" font-family="Arial, Noto Sans CJK SC, Microsoft YaHei, sans-serif">11ns</text>
<line x1="1112" y1="257" x2="1128" y2="257" stroke="#667085" stroke-width="1"/>
<text x="1138" y="262" text-anchor="start" font-size="14" fill="#667085" font-family="Arial, Noto Sans CJK SC, Microsoft YaHei, sans-serif">251ns</text>
<line x1="382" y1="165" x2="398" y2="165" stroke="#667085" stroke-width="1"/>
<text x="372" y="170" text-anchor="end" font-size="14" fill="#667085" font-family="Arial, Noto Sans CJK SC, Microsoft YaHei, sans-serif">16ns</text>
<line x1="1112" y1="331" x2="1128" y2="331" stroke="#667085" stroke-width="1"/>
<text x="1138" y="336" text-anchor="start" font-size="14" fill="#667085" font-family="Arial, Noto Sans CJK SC, Microsoft YaHei, sans-serif">418ns</text>
<line x1="382" y1="185" x2="398" y2="185" stroke="#667085" stroke-width="1"/>
<text x="372" y="190" text-anchor="end" font-size="14" fill="#667085" font-family="Arial, Noto Sans CJK SC, Microsoft YaHei, sans-serif">22ns</text>
<line x1="382" y1="215" x2="398" y2="215" stroke="#667085" stroke-width="1"/>
<text x="372" y="220" text-anchor="end" font-size="14" fill="#667085" font-family="Arial, Noto Sans CJK SC, Microsoft YaHei, sans-serif">28ns</text>
<line x1="1112" y1="267" x2="1128" y2="267" stroke="#667085" stroke-width="1"/>
<text x="1138" y="272" text-anchor="start" font-size="14" fill="#667085" font-family="Arial, Noto Sans CJK SC, Microsoft YaHei, sans-serif">252ns</text>
<line x1="382" y1="299" x2="398" y2="299" stroke="#667085" stroke-width="1"/>
<text x="372" y="304" text-anchor="end" font-size="14" fill="#667085" font-family="Arial, Noto Sans CJK SC, Microsoft YaHei, sans-serif">316ns</text>
<line x1="1112" y1="341" x2="1128" y2="341" stroke="#667085" stroke-width="1"/>
<text x="1138" y="346" text-anchor="start" font-size="14" fill="#667085" font-family="Arial, Noto Sans CJK SC, Microsoft YaHei, sans-serif">419ns</text>
<line x1="382" y1="373" x2="398" y2="373" stroke="#667085" stroke-width="1"/>
<text x="372" y="378" text-anchor="end" font-size="14" fill="#667085" font-family="Arial, Noto Sans CJK SC, Microsoft YaHei, sans-serif">483ns</text>
<line x1="382" y1="543" x2="398" y2="543" stroke="#667085" stroke-width="1"/>
<text x="372" y="548" text-anchor="end" font-size="14" fill="#667085" font-family="Arial, Noto Sans CJK SC, Microsoft YaHei, sans-serif">26084ns</text>
<line x1="1112" y1="595" x2="1128" y2="595" stroke="#667085" stroke-width="1"/>
<text x="1138" y="600" text-anchor="start" font-size="14" fill="#667085" font-family="Arial, Noto Sans CJK SC, Microsoft YaHei, sans-serif">26324ns</text>
<line x1="382" y1="563" x2="398" y2="563" stroke="#667085" stroke-width="1"/>
<text x="372" y="568" text-anchor="end" font-size="14" fill="#667085" font-family="Arial, Noto Sans CJK SC, Microsoft YaHei, sans-serif">26090ns</text>
<line x1="1112" y1="669" x2="1128" y2="669" stroke="#667085" stroke-width="1"/>
<text x="1138" y="674" text-anchor="start" font-size="14" fill="#667085" font-family="Arial, Noto Sans CJK SC, Microsoft YaHei, sans-serif">26491ns</text>
<line x1="1112" y1="605" x2="1128" y2="605" stroke="#667085" stroke-width="1"/>
<text x="1138" y="610" text-anchor="start" font-size="14" fill="#667085" font-family="Arial, Noto Sans CJK SC, Microsoft YaHei, sans-serif">26325ns</text>
<line x1="382" y1="637" x2="398" y2="637" stroke="#667085" stroke-width="1"/>
<text x="372" y="642" text-anchor="end" font-size="14" fill="#667085" font-family="Arial, Noto Sans CJK SC, Microsoft YaHei, sans-serif">26390ns</text>
<line x1="1112" y1="679" x2="1128" y2="679" stroke="#667085" stroke-width="1"/>
<text x="1138" y="684" text-anchor="start" font-size="14" fill="#667085" font-family="Arial, Noto Sans CJK SC, Microsoft YaHei, sans-serif">26492ns</text>
<line x1="382" y1="711" x2="398" y2="711" stroke="#667085" stroke-width="1"/>
<text x="372" y="716" text-anchor="end" font-size="14" fill="#667085" font-family="Arial, Noto Sans CJK SC, Microsoft YaHei, sans-serif">26557ns</text>
<g transform="translate(638.2,183.1) rotate(8.72)">
<text x="0" y="-7" text-anchor="middle" font-size="18" font-family="Arial, Noto Sans CJK SC, Microsoft YaHei, sans-serif" font-style="italic" fill="#111111" stroke="white" stroke-width="5" paint-order="stroke fill">psn=0</text>
</g>
<g transform="translate(696.6,234.7) rotate(12.81)">
<text x="0" y="-7" text-anchor="middle" font-size="18" font-family="Arial, Noto Sans CJK SC, Microsoft YaHei, sans-serif" font-style="italic" fill="#111111" stroke="white" stroke-width="5" paint-order="stroke fill">psn=1</text>
</g>
<text x="812" y="286" font-size="34" font-weight="700" fill="#ff1f1f">X</text>
<text x="840" y="284" font-size="14" fill="#ff1f1f">drop</text>
<g transform="translate(561.4,224.1) rotate(12.84)">
<text x="0" y="-7" text-anchor="middle" font-size="18" font-family="Arial, Noto Sans CJK SC, Microsoft YaHei, sans-serif" font-style="italic" fill="#ff1f1f" stroke="white" stroke-width="5" paint-order="stroke fill">psn=2</text>
</g>
<text x="812" y="316" font-size="34" font-weight="700" fill="#ff1f1f">X</text>
<text x="840" y="314" font-size="14" fill="#ff1f1f">drop</text>
<g transform="translate(561.4,254.1) rotate(12.84)">
<text x="0" y="-7" text-anchor="middle" font-size="18" font-family="Arial, Noto Sans CJK SC, Microsoft YaHei, sans-serif" font-style="italic" fill="#ff1f1f" stroke="white" stroke-width="5" paint-order="stroke fill">psn=3</text>
</g>
<g transform="translate(784.2,281.7) rotate(-2.51)">
<text x="0" y="-7" text-anchor="middle" font-size="17" font-family="Arial, Noto Sans CJK SC, Microsoft YaHei, sans-serif" font-style="italic" fill="#111111" stroke="white" stroke-width="5" paint-order="stroke fill">ACK(PSN=0)</text>
</g>
<g transform="translate(784.2,355.7) rotate(-2.51)">
<text x="0" y="-7" text-anchor="middle" font-size="17" font-family="Arial, Noto Sans CJK SC, Microsoft YaHei, sans-serif" font-style="italic" fill="#111111" stroke="white" stroke-width="5" paint-order="stroke fill">ACK(PSN=1)</text>
</g>
<g transform="translate(638.2,560.7) rotate(4.07)">
<text x="0" y="-7" text-anchor="middle" font-size="18" font-family="Arial, Noto Sans CJK SC, Microsoft YaHei, sans-serif" font-style="italic" fill="#111111" stroke="white" stroke-width="5" paint-order="stroke fill">psn=2</text>
</g>
<g transform="translate(696.6,607.5) rotate(8.26)">
<text x="0" y="-7" text-anchor="middle" font-size="18" font-family="Arial, Noto Sans CJK SC, Microsoft YaHei, sans-serif" font-style="italic" fill="#111111" stroke="white" stroke-width="5" paint-order="stroke fill">psn=3</text>
</g>
<g transform="translate(784.2,619.7) rotate(-2.51)">
<text x="0" y="-7" text-anchor="middle" font-size="17" font-family="Arial, Noto Sans CJK SC, Microsoft YaHei, sans-serif" font-style="italic" fill="#111111" stroke="white" stroke-width="5" paint-order="stroke fill">ACK(PSN=2)</text>
</g>
<g transform="translate(784.2,693.7) rotate(-2.51)">
<text x="0" y="-7" text-anchor="middle" font-size="17" font-family="Arial, Noto Sans CJK SC, Microsoft YaHei, sans-serif" font-style="italic" fill="#111111" stroke="white" stroke-width="5" paint-order="stroke fill">ACK(PSN=3)</text>
</g>
<text x="750" y="971" font-size="32" text-anchor="middle" fill="#111111" font-weight="700">相似图 6-20  GBN_unfast/tail_tp_packet_loss</text>
</svg>
