<svg xmlns="http://www.w3.org/2000/svg" width="1500" height="980" viewBox="0 0 1500 980">
<defs>
<marker id="arrow" markerWidth="9" markerHeight="9" refX="8" refY="4.5" orient="auto" markerUnits="strokeWidth">
<path d="M0,0 L9,4.5 L0,9 z" fill="#111111"/>
</marker>
<marker id="arrow-purple" markerWidth="9" markerHeight="9" refX="8" refY="4.5" orient="auto" markerUnits="strokeWidth">
<path d="M0,0 L12,6 L0,12 z" fill="#6941C6"/>
</marker>
<marker id="arrow-red" markerWidth="9" markerHeight="9" refX="8" refY="4.5" orient="auto" markerUnits="strokeWidth">
<path d="M0,0 L9,4.5 L0,9 z" fill="#ff1f1f"/>
</marker>
<marker id="axis-arrow" markerWidth="12" markerHeight="12" refX="6" refY="10" orient="auto">
<path d="M1,1 L11,1 L6,11 z" fill="#111111"/>
</marker>
</defs>
<rect x="0" y="0" width="100%" height="100%" fill="white"/>
<style>text{font-family:Arial,"Noto Sans CJK SC","Microsoft YaHei",sans-serif;}</style>
<text x="390" y="55" font-size="32" text-anchor="middle" fill="#111111">TP Sender</text>
<text x="1120" y="55" font-size="32" text-anchor="middle" fill="#111111">TP Receiver</text>
<line x1="390" y1="85" x2="390" y2="860" stroke="#111111" stroke-width="1.4" marker-end="url(#axis-arrow)"/>
<line x1="1120" y1="85" x2="1120" y2="860" stroke="#111111" stroke-width="1.4" marker-end="url(#axis-arrow)"/>
<path d="M 352 333 C 332 333 332 351 332 369 L 332 424.0 C 332 436.0 320 444.0 307 444.0 C 320 444.0 332 452.0 332 464.0 L 332 519 C 332 537 332 555 352 555" fill="none" stroke="#4f7fc9" stroke-width="2"/>
<text x="240" y="452.0" font-size="30" fill="#4f7fc9">RTO</text>
<text x="226" y="482.0" font-size="14" fill="#4f7fc9">25600ns</text>
<text x="42" y="325" font-size="14" fill="#4f7fc9">start: TPACK PSN=1 arrived @ 483ns</text>
<text x="42" y="577" font-size="14" fill="#4f7fc9">timeout @ 26083ns; retrans DATA PSN=2 @ 26084ns</text>
<line x1="390" y1="145" x2="1120" y2="217" stroke="#111111" stroke-width="1.5" marker-end="url(#arrow)"/>
<line x1="390" y1="165" x2="1120" y2="291" stroke="#111111" stroke-width="1.5" marker-end="url(#arrow)"/>
<line x1="390" y1="185" x2="1120" y2="365" stroke="#111111" stroke-width="1.5" marker-end="url(#arrow)"/>
<line x1="1120" y1="227" x2="390" y2="259" stroke="#111111" stroke-width="1.5" marker-end="url(#arrow)"/>
<line x1="1120" y1="301" x2="390" y2="333" stroke="#111111" stroke-width="1.5" marker-end="url(#arrow)"/>
<line x1="1120" y1="375" x2="711" y2="476" stroke="#ff1f1f" stroke-width="1.7" marker-end="url(#arrow-red)"/>
<line x1="390" y1="555" x2="1120" y2="587" stroke="#111111" stroke-width="1.5" marker-end="url(#arrow)"/>
<line x1="1120" y1="597" x2="390" y2="629" stroke="#111111" stroke-width="1.5" marker-end="url(#arrow)"/>
<line x1="382" y1="145" x2="398" y2="145" stroke="#667085" stroke-width="1"/>
<text x="372" y="150" text-anchor="end" font-size="14" fill="#667085" font-family="Arial, Noto Sans CJK SC, Microsoft YaHei, sans-serif">11ns</text>
<line x1="1112" y1="217" x2="1128" y2="217" stroke="#667085" stroke-width="1"/>
<text x="1138" y="222" text-anchor="start" font-size="14" fill="#667085" font-family="Arial, Noto Sans CJK SC, Microsoft YaHei, sans-serif">251ns</text>
<line x1="382" y1="165" x2="398" y2="165" stroke="#667085" stroke-width="1"/>
<text x="372" y="170" text-anchor="end" font-size="14" fill="#667085" font-family="Arial, Noto Sans CJK SC, Microsoft YaHei, sans-serif">16ns</text>
<line x1="1112" y1="291" x2="1128" y2="291" stroke="#667085" stroke-width="1"/>
<text x="1138" y="296" text-anchor="start" font-size="14" fill="#667085" font-family="Arial, Noto Sans CJK SC, Microsoft YaHei, sans-serif">418ns</text>
<line x1="382" y1="185" x2="398" y2="185" stroke="#667085" stroke-width="1"/>
<text x="372" y="190" text-anchor="end" font-size="14" fill="#667085" font-family="Arial, Noto Sans CJK SC, Microsoft YaHei, sans-serif">22ns</text>
<line x1="1112" y1="365" x2="1128" y2="365" stroke="#667085" stroke-width="1"/>
<text x="1138" y="370" text-anchor="start" font-size="14" fill="#667085" font-family="Arial, Noto Sans CJK SC, Microsoft YaHei, sans-serif">585ns</text>
<line x1="1112" y1="227" x2="1128" y2="227" stroke="#667085" stroke-width="1"/>
<text x="1138" y="232" text-anchor="start" font-size="14" fill="#667085" font-family="Arial, Noto Sans CJK SC, Microsoft YaHei, sans-serif">252ns</text>
<line x1="382" y1="259" x2="398" y2="259" stroke="#667085" stroke-width="1"/>
<text x="372" y="264" text-anchor="end" font-size="14" fill="#667085" font-family="Arial, Noto Sans CJK SC, Microsoft YaHei, sans-serif">316ns</text>
<line x1="1112" y1="301" x2="1128" y2="301" stroke="#667085" stroke-width="1"/>
<text x="1138" y="306" text-anchor="start" font-size="14" fill="#667085" font-family="Arial, Noto Sans CJK SC, Microsoft YaHei, sans-serif">419ns</text>
<line x1="382" y1="333" x2="398" y2="333" stroke="#667085" stroke-width="1"/>
<text x="372" y="338" text-anchor="end" font-size="14" fill="#667085" font-family="Arial, Noto Sans CJK SC, Microsoft YaHei, sans-serif">483ns</text>
<line x1="1112" y1="375" x2="1128" y2="375" stroke="#667085" stroke-width="1"/>
<text x="1138" y="380" text-anchor="start" font-size="14" fill="#667085" font-family="Arial, Noto Sans CJK SC, Microsoft YaHei, sans-serif">586ns</text>
<line x1="382" y1="555" x2="398" y2="555" stroke="#667085" stroke-width="1"/>
<text x="372" y="560" text-anchor="end" font-size="14" fill="#667085" font-family="Arial, Noto Sans CJK SC, Microsoft YaHei, sans-serif">26084ns</text>
<line x1="1112" y1="587" x2="1128" y2="587" stroke="#667085" stroke-width="1"/>
<text x="1138" y="592" text-anchor="start" font-size="14" fill="#667085" font-family="Arial, Noto Sans CJK SC, Microsoft YaHei, sans-serif">26324ns</text>
<line x1="1112" y1="597" x2="1128" y2="597" stroke="#667085" stroke-width="1"/>
<text x="1138" y="602" text-anchor="start" font-size="14" fill="#667085" font-family="Arial, Noto Sans CJK SC, Microsoft YaHei, sans-serif">26325ns</text>
<line x1="382" y1="629" x2="398" y2="629" stroke="#667085" stroke-width="1"/>
<text x="372" y="634" text-anchor="end" font-size="14" fill="#667085" font-family="Arial, Noto Sans CJK SC, Microsoft YaHei, sans-serif">26390ns</text>
<g transform="translate(638.2,169.5) rotate(5.63)">
<text x="0" y="-7" text-anchor="middle" font-size="18" font-family="Arial, Noto Sans CJK SC, Microsoft YaHei, sans-serif" font-style="italic" fill="#111111" stroke="white" stroke-width="5" paint-order="stroke fill">psn=0</text>
</g>
<g transform="translate(696.6,217.9) rotate(9.79)">
<text x="0" y="-7" text-anchor="middle" font-size="18" font-family="Arial, Noto Sans CJK SC, Microsoft YaHei, sans-serif" font-style="italic" fill="#111111" stroke="white" stroke-width="5" paint-order="stroke fill">psn=1</text>
</g>
<g transform="translate(638.2,246.2) rotate(13.85)">
<text x="0" y="-7" text-anchor="middle" font-size="18" font-family="Arial, Noto Sans CJK SC, Microsoft YaHei, sans-serif" font-style="italic" fill="#111111" stroke="white" stroke-width="5" paint-order="stroke fill">psn=2</text>
</g>
<g transform="translate(784.2,241.7) rotate(-2.51)">
<text x="0" y="-7" text-anchor="middle" font-size="17" font-family="Arial, Noto Sans CJK SC, Microsoft YaHei, sans-serif" font-style="italic" fill="#111111" stroke="white" stroke-width="5" paint-order="stroke fill">ACK(PSN=0)</text>
</g>
<g transform="translate(784.2,315.7) rotate(-2.51)">
<text x="0" y="-7" text-anchor="middle" font-size="17" font-family="Arial, Noto Sans CJK SC, Microsoft YaHei, sans-serif" font-style="italic" fill="#111111" stroke="white" stroke-width="5" paint-order="stroke fill">ACK(PSN=1)</text>
</g>
<text x="725" y="484" font-size="34" font-weight="700" fill="#ff1f1f">X</text>
<text x="753" y="482" font-size="14" fill="#ff1f1f">drop</text>
<g transform="translate(948.2,417.4) rotate(-13.87)">
<text x="0" y="-7" text-anchor="middle" font-size="18" font-family="Arial, Noto Sans CJK SC, Microsoft YaHei, sans-serif" font-style="italic" fill="#ff1f1f" stroke="white" stroke-width="5" paint-order="stroke fill">ACK(PSN=ANY)</text>
</g>
<g transform="translate(696.6,568.4) rotate(2.51)">
<text x="0" y="-7" text-anchor="middle" font-size="18" font-family="Arial, Noto Sans CJK SC, Microsoft YaHei, sans-serif" font-style="italic" fill="#111111" stroke="white" stroke-width="5" paint-order="stroke fill">psn=2</text>
</g>
<g transform="translate(784.2,611.7) rotate(-2.51)">
<text x="0" y="-7" text-anchor="middle" font-size="17" font-family="Arial, Noto Sans CJK SC, Microsoft YaHei, sans-serif" font-style="italic" fill="#111111" stroke="white" stroke-width="5" paint-order="stroke fill">ACK(PSN=2)</text>
</g>
<text x="750" y="935" font-size="32" text-anchor="middle" fill="#111111" font-weight="700">相似图 6-22  SELE_fast/tail_tpack_loss</text>
</svg>
