<svg xmlns="http://www.w3.org/2000/svg" width="1500" height="986" viewBox="0 0 1500 986">
<defs>
<marker id="arrow" markerWidth="9" markerHeight="9" refX="8" refY="4.5" orient="auto" markerUnits="strokeWidth">
<path d="M0,0 L9,4.5 L0,9 z" fill="#111111"/>
</marker>
<marker id="arrow-purple" markerWidth="9" markerHeight="9" refX="8" refY="4.5" orient="auto" markerUnits="strokeWidth">
<path d="M0,0 L12,6 L0,12 z" fill="#6941C6"/>
</marker>
<marker id="arrow-red" markerWidth="9" markerHeight="9" refX="8" refY="4.5" orient="auto" markerUnits="strokeWidth">
<path d="M0,0 L9,4.5 L0,9 z" fill="#ff1f1f"/>
</marker>
<marker id="axis-arrow" markerWidth="12" markerHeight="12" refX="6" refY="10" orient="auto">
<path d="M1,1 L11,1 L6,11 z" fill="#111111"/>
</marker>
</defs>
<rect x="0" y="0" width="100%" height="100%" fill="white"/>
<style>text{font-family:Arial,"Noto Sans CJK SC","Microsoft YaHei",sans-serif;}</style>
<text x="390" y="55" font-size="32" text-anchor="middle" fill="#111111">TP Sender</text>
<text x="1120" y="55" font-size="32" text-anchor="middle" fill="#111111">TP Receiver</text>
<line x1="390" y1="85" x2="390" y2="866" stroke="#111111" stroke-width="1.4" marker-end="url(#axis-arrow)"/>
<line x1="1120" y1="85" x2="1120" y2="866" stroke="#111111" stroke-width="1.4" marker-end="url(#axis-arrow)"/>
<path d="M 352 289 C 332 289 332 307 332 325 L 332 428.0 C 332 440.0 320 448.0 307 448.0 C 320 448.0 332 456.0 332 468.0 L 332 571 C 332 589 332 607 352 607" fill="none" stroke="#4f7fc9" stroke-width="2"/>
<text x="240" y="456.0" font-size="30" fill="#4f7fc9">RTO</text>
<text x="226" y="486.0" font-size="14" fill="#4f7fc9">25600ns</text>
<text x="42" y="281" font-size="14" fill="#4f7fc9">start: TPACK PSN=0 arrived @ 316ns</text>
<text x="42" y="629" font-size="14" fill="#4f7fc9">timeout @ 25916ns; retrans DATA PSN=1 @ 25917ns</text>
<line x1="390" y1="145" x2="1120" y2="247" stroke="#111111" stroke-width="1.5" marker-end="url(#arrow)"/>
<line x1="390" y1="165" x2="798" y2="222" stroke="#ff1f1f" stroke-width="1.7" marker-end="url(#arrow-red)"/>
<line x1="390" y1="195" x2="1120" y2="321" stroke="#111111" stroke-width="1.5" marker-end="url(#arrow)"/>
<line x1="390" y1="215" x2="1120" y2="395" stroke="#111111" stroke-width="1.5" marker-end="url(#arrow)"/>
<line x1="1120" y1="257" x2="390" y2="289" stroke="#111111" stroke-width="1.5" marker-end="url(#arrow)"/>
<line x1="1120" y1="331" x2="390" y2="363" stroke="#111111" stroke-width="1.5" marker-end="url(#arrow)"/>
<line x1="1120" y1="405" x2="390" y2="437" stroke="#111111" stroke-width="1.5" marker-end="url(#arrow)"/>
<line x1="390" y1="607" x2="1120" y2="639" stroke="#111111" stroke-width="1.5" marker-end="url(#arrow)"/>
<line x1="1120" y1="649" x2="390" y2="681" stroke="#111111" stroke-width="1.5" marker-end="url(#arrow)"/>
<line x1="382" y1="145" x2="398" y2="145" stroke="#667085" stroke-width="1"/>
<text x="372" y="150" text-anchor="end" font-size="14" fill="#667085" font-family="Arial, Noto Sans CJK SC, Microsoft YaHei, sans-serif">11ns</text>
<line x1="1112" y1="247" x2="1128" y2="247" stroke="#667085" stroke-width="1"/>
<text x="1138" y="252" text-anchor="start" font-size="14" fill="#667085" font-family="Arial, Noto Sans CJK SC, Microsoft YaHei, sans-serif">251ns</text>
<line x1="382" y1="165" x2="398" y2="165" stroke="#667085" stroke-width="1"/>
<text x="372" y="170" text-anchor="end" font-size="14" fill="#667085" font-family="Arial, Noto Sans CJK SC, Microsoft YaHei, sans-serif">17ns</text>
<line x1="382" y1="195" x2="398" y2="195" stroke="#667085" stroke-width="1"/>
<text x="372" y="200" text-anchor="end" font-size="14" fill="#667085" font-family="Arial, Noto Sans CJK SC, Microsoft YaHei, sans-serif">22ns</text>
<line x1="1112" y1="321" x2="1128" y2="321" stroke="#667085" stroke-width="1"/>
<text x="1138" y="326" text-anchor="start" font-size="14" fill="#667085" font-family="Arial, Noto Sans CJK SC, Microsoft YaHei, sans-serif">419ns</text>
<line x1="382" y1="215" x2="398" y2="215" stroke="#667085" stroke-width="1"/>
<text x="372" y="220" text-anchor="end" font-size="14" fill="#667085" font-family="Arial, Noto Sans CJK SC, Microsoft YaHei, sans-serif">27ns</text>
<line x1="1112" y1="395" x2="1128" y2="395" stroke="#667085" stroke-width="1"/>
<text x="1138" y="400" text-anchor="start" font-size="14" fill="#667085" font-family="Arial, Noto Sans CJK SC, Microsoft YaHei, sans-serif">586ns</text>
<line x1="1112" y1="257" x2="1128" y2="257" stroke="#667085" stroke-width="1"/>
<text x="1138" y="262" text-anchor="start" font-size="14" fill="#667085" font-family="Arial, Noto Sans CJK SC, Microsoft YaHei, sans-serif">252ns</text>
<line x1="382" y1="289" x2="398" y2="289" stroke="#667085" stroke-width="1"/>
<text x="372" y="294" text-anchor="end" font-size="14" fill="#667085" font-family="Arial, Noto Sans CJK SC, Microsoft YaHei, sans-serif">316ns</text>
<line x1="1112" y1="331" x2="1128" y2="331" stroke="#667085" stroke-width="1"/>
<text x="1138" y="336" text-anchor="start" font-size="14" fill="#667085" font-family="Arial, Noto Sans CJK SC, Microsoft YaHei, sans-serif">420ns</text>
<line x1="382" y1="363" x2="398" y2="363" stroke="#667085" stroke-width="1"/>
<text x="372" y="368" text-anchor="end" font-size="14" fill="#667085" font-family="Arial, Noto Sans CJK SC, Microsoft YaHei, sans-serif">485ns</text>
<line x1="1112" y1="405" x2="1128" y2="405" stroke="#667085" stroke-width="1"/>
<text x="1138" y="410" text-anchor="start" font-size="14" fill="#667085" font-family="Arial, Noto Sans CJK SC, Microsoft YaHei, sans-serif">587ns</text>
<line x1="382" y1="437" x2="398" y2="437" stroke="#667085" stroke-width="1"/>
<text x="372" y="442" text-anchor="end" font-size="14" fill="#667085" font-family="Arial, Noto Sans CJK SC, Microsoft YaHei, sans-serif">652ns</text>
<line x1="382" y1="607" x2="398" y2="607" stroke="#667085" stroke-width="1"/>
<text x="372" y="612" text-anchor="end" font-size="14" fill="#667085" font-family="Arial, Noto Sans CJK SC, Microsoft YaHei, sans-serif">25917ns</text>
<line x1="1112" y1="639" x2="1128" y2="639" stroke="#667085" stroke-width="1"/>
<text x="1138" y="644" text-anchor="start" font-size="14" fill="#667085" font-family="Arial, Noto Sans CJK SC, Microsoft YaHei, sans-serif">26157ns</text>
<line x1="1112" y1="649" x2="1128" y2="649" stroke="#667085" stroke-width="1"/>
<text x="1138" y="654" text-anchor="start" font-size="14" fill="#667085" font-family="Arial, Noto Sans CJK SC, Microsoft YaHei, sans-serif">26158ns</text>
<line x1="382" y1="681" x2="398" y2="681" stroke="#667085" stroke-width="1"/>
<text x="372" y="686" text-anchor="end" font-size="14" fill="#667085" font-family="Arial, Noto Sans CJK SC, Microsoft YaHei, sans-serif">26223ns</text>
<g transform="translate(638.2,179.7) rotate(7.95)">
<text x="0" y="-7" text-anchor="middle" font-size="18" font-family="Arial, Noto Sans CJK SC, Microsoft YaHei, sans-serif" font-style="italic" fill="#111111" stroke="white" stroke-width="5" paint-order="stroke fill">psn=0</text>
</g>
<text x="812" y="230" font-size="34" font-weight="700" fill="#ff1f1f">X</text>
<text x="840" y="228" font-size="14" fill="#ff1f1f">drop</text>
<g transform="translate(561.4,188.9) rotate(7.95)">
<text x="0" y="-7" text-anchor="middle" font-size="18" font-family="Arial, Noto Sans CJK SC, Microsoft YaHei, sans-serif" font-style="italic" fill="#ff1f1f" stroke="white" stroke-width="5" paint-order="stroke fill">psn=1</text>
</g>
<g transform="translate(638.2,237.8) rotate(9.79)">
<text x="0" y="-7" text-anchor="middle" font-size="18" font-family="Arial, Noto Sans CJK SC, Microsoft YaHei, sans-serif" font-style="italic" fill="#111111" stroke="white" stroke-width="5" paint-order="stroke fill">psn=2</text>
</g>
<g transform="translate(696.6,290.6) rotate(13.85)">
<text x="0" y="-7" text-anchor="middle" font-size="18" font-family="Arial, Noto Sans CJK SC, Microsoft YaHei, sans-serif" font-style="italic" fill="#111111" stroke="white" stroke-width="5" paint-order="stroke fill">psn=3</text>
</g>
<g transform="translate(784.2,271.7) rotate(-2.51)">
<text x="0" y="-7" text-anchor="middle" font-size="17" font-family="Arial, Noto Sans CJK SC, Microsoft YaHei, sans-serif" font-style="italic" fill="#111111" stroke="white" stroke-width="5" paint-order="stroke fill">ACK(PSN=0)</text>
</g>
<g transform="translate(711.2,348.9) rotate(-2.51)">
<text x="0" y="-7" text-anchor="middle" font-size="15" font-family="Arial, Noto Sans CJK SC, Microsoft YaHei, sans-serif" font-style="italic" fill="#111111" stroke="white" stroke-width="5" paint-order="stroke fill">SACK(PSN=0,MAX=2,BM=101)</text>
</g>
<g transform="translate(755.0,421.0) rotate(-2.51)">
<text x="0" y="-7" text-anchor="middle" font-size="15" font-family="Arial, Noto Sans CJK SC, Microsoft YaHei, sans-serif" font-style="italic" fill="#111111" stroke="white" stroke-width="5" paint-order="stroke fill">SACK(PSN=0,MAX=3,BM=1011)</text>
</g>
<g transform="translate(638.2,617.9) rotate(2.51)">
<text x="0" y="-7" text-anchor="middle" font-size="18" font-family="Arial, Noto Sans CJK SC, Microsoft YaHei, sans-serif" font-style="italic" fill="#111111" stroke="white" stroke-width="5" paint-order="stroke fill">psn=1</text>
</g>
<g transform="translate(784.2,663.7) rotate(-2.51)">
<text x="0" y="-7" text-anchor="middle" font-size="17" font-family="Arial, Noto Sans CJK SC, Microsoft YaHei, sans-serif" font-style="italic" fill="#111111" stroke="white" stroke-width="5" paint-order="stroke fill">ACK(PSN=3)</text>
</g>
<text x="750" y="941" font-size="32" text-anchor="middle" fill="#111111" font-weight="700">图 6-32  SELE_unfast/first_tp_packet_loss</text>
</svg>
